# xmcd CD database file
#
# Track frame offsets:
#	150
#	17791
#	33693
#	51324
#	68302
#	86320
#	109442
#	141823
#	162047
#	175712
#
# Disc length: 2579 seconds
#
# Revision: 0
# Processed by: cddbd v1.5.2PL0 Copyright (c) Steve Scherf et al.
# Submitted via: CDex 2.04
#
DISCID=7b0a110a
DTITLE=Lazy Eye - Pocket The Black
DYEAR=2016
DGENRE=Blues
TTITLE0=Keepin' From Lovin'
TTITLE1=Pocket The Black
TTITLE2=Bach The Way I Came
TTITLE3=Let Me Down Easy
TTITLE4=Mucho Jalapeno
TTITLE5=Shack O' Mine
TTITLE6=Do You Know How It Feels
TTITLE7=Treat Your Lover Right
TTITLE8=It Ain't Right
TTITLE9=Swing For Marz
EXTD=YEAR: 2016
EXTT0=
EXTT1=
EXTT2=
EXTT3=
EXTT4=
EXTT5=
EXTT6=
EXTT7=
EXTT8=
EXTT9=
PLAYORDER=
